<mxfile host="app.diagrams.net" agent="Mozilla/5.0 (X11; Linux x86_64; rv:138.0) Gecko/20100101 Firefox/138.0" version="27.0.5">
  <diagram name="Page-1" id="ZEaDoUofSC5zOfhVbg-a">
    <mxGraphModel dx="3036" dy="2350" grid="1" gridSize="10" guides="1" tooltips="1" connect="1" arrows="1" fold="1" page="1" pageScale="1" pageWidth="850" pageHeight="1100" math="0" shadow="0">
      <root>
        <mxCell id="0" />
        <mxCell id="1" parent="0" />
        <mxCell id="33KwMXjwMXi8QC3e7YPG-1" value="PC" style="swimlane;whiteSpace=wrap;html=1;fontSize=18;" parent="1" vertex="1">
          <mxGeometry x="990" y="-90" width="590" height="720" as="geometry" />
        </mxCell>
        <mxCell id="33KwMXjwMXi8QC3e7YPG-38" value="AUTOWARE" style="rounded=1;whiteSpace=wrap;html=1;fontSize=16;" parent="33KwMXjwMXi8QC3e7YPG-1" vertex="1">
          <mxGeometry x="161.25" y="102" width="267.5" height="140" as="geometry" />
        </mxCell>
        <mxCell id="33KwMXjwMXi8QC3e7YPG-49" style="edgeStyle=orthogonalEdgeStyle;rounded=0;orthogonalLoop=1;jettySize=auto;html=1;exitX=0.5;exitY=0;exitDx=0;exitDy=0;entryX=0.5;entryY=1;entryDx=0;entryDy=0;" parent="33KwMXjwMXi8QC3e7YPG-1" source="33KwMXjwMXi8QC3e7YPG-39" target="33KwMXjwMXi8QC3e7YPG-45" edge="1">
          <mxGeometry relative="1" as="geometry" />
        </mxCell>
        <mxCell id="33KwMXjwMXi8QC3e7YPG-39" value="MQTT BROKER" style="rounded=1;whiteSpace=wrap;html=1;fontSize=16;" parent="33KwMXjwMXi8QC3e7YPG-1" vertex="1">
          <mxGeometry x="161.25" y="522" width="267.5" height="140" as="geometry" />
        </mxCell>
        <mxCell id="33KwMXjwMXi8QC3e7YPG-48" style="edgeStyle=orthogonalEdgeStyle;rounded=0;orthogonalLoop=1;jettySize=auto;html=1;exitX=0.5;exitY=0;exitDx=0;exitDy=0;entryX=0.5;entryY=1;entryDx=0;entryDy=0;" parent="33KwMXjwMXi8QC3e7YPG-1" source="33KwMXjwMXi8QC3e7YPG-45" target="33KwMXjwMXi8QC3e7YPG-38" edge="1">
          <mxGeometry relative="1" as="geometry" />
        </mxCell>
        <mxCell id="33KwMXjwMXi8QC3e7YPG-45" value="MQTT2ROS" style="rounded=1;whiteSpace=wrap;html=1;fontSize=16;" parent="33KwMXjwMXi8QC3e7YPG-1" vertex="1">
          <mxGeometry x="161.25" y="322" width="267.5" height="113" as="geometry" />
        </mxCell>
        <mxCell id="33KwMXjwMXi8QC3e7YPG-40" style="edgeStyle=orthogonalEdgeStyle;rounded=0;orthogonalLoop=1;jettySize=auto;html=1;exitX=0.5;exitY=0;exitDx=0;exitDy=0;entryX=0.5;entryY=1;entryDx=0;entryDy=0;" parent="1" source="33KwMXjwMXi8QC3e7YPG-2" target="33KwMXjwMXi8QC3e7YPG-27" edge="1">
          <mxGeometry relative="1" as="geometry" />
        </mxCell>
        <mxCell id="33KwMXjwMXi8QC3e7YPG-2" value="Ground Station" style="swimlane;whiteSpace=wrap;html=1;fontSize=18;" parent="1" vertex="1">
          <mxGeometry x="-321" y="330" width="1130" height="630" as="geometry" />
        </mxCell>
        <mxCell id="33KwMXjwMXi8QC3e7YPG-24" style="edgeStyle=orthogonalEdgeStyle;rounded=0;orthogonalLoop=1;jettySize=auto;html=1;exitX=1;exitY=0.5;exitDx=0;exitDy=0;entryX=0.5;entryY=0;entryDx=0;entryDy=0;startArrow=classic;startFill=1;" parent="33KwMXjwMXi8QC3e7YPG-2" source="33KwMXjwMXi8QC3e7YPG-5" target="33KwMXjwMXi8QC3e7YPG-17" edge="1">
          <mxGeometry relative="1" as="geometry" />
        </mxCell>
        <mxCell id="33KwMXjwMXi8QC3e7YPG-26" style="edgeStyle=orthogonalEdgeStyle;rounded=0;orthogonalLoop=1;jettySize=auto;html=1;exitX=0;exitY=0.5;exitDx=0;exitDy=0;entryX=0.5;entryY=0;entryDx=0;entryDy=0;startArrow=classic;startFill=1;" parent="33KwMXjwMXi8QC3e7YPG-2" source="33KwMXjwMXi8QC3e7YPG-5" target="33KwMXjwMXi8QC3e7YPG-7" edge="1">
          <mxGeometry relative="1" as="geometry" />
        </mxCell>
        <mxCell id="33KwMXjwMXi8QC3e7YPG-5" value="Communications" style="swimlane;whiteSpace=wrap;html=1;fontSize=18;" parent="33KwMXjwMXi8QC3e7YPG-2" vertex="1">
          <mxGeometry x="405" y="40" width="320" height="200" as="geometry" />
        </mxCell>
        <mxCell id="33KwMXjwMXi8QC3e7YPG-8" value="&lt;div&gt;Message&lt;/div&gt;&lt;div&gt;Subscriber&lt;/div&gt;" style="rounded=1;whiteSpace=wrap;html=1;fontSize=16;" parent="33KwMXjwMXi8QC3e7YPG-5" vertex="1">
          <mxGeometry x="100" y="35" width="120" height="60" as="geometry" />
        </mxCell>
        <mxCell id="33KwMXjwMXi8QC3e7YPG-9" value="&lt;div&gt;Message&lt;/div&gt;&lt;div&gt;Publisher&lt;/div&gt;" style="rounded=1;whiteSpace=wrap;html=1;fontSize=16;" parent="33KwMXjwMXi8QC3e7YPG-5" vertex="1">
          <mxGeometry x="100" y="120" width="120" height="60" as="geometry" />
        </mxCell>
        <mxCell id="33KwMXjwMXi8QC3e7YPG-7" value="Fleet Manager Core" style="swimlane;whiteSpace=wrap;html=1;fontSize=18;" parent="33KwMXjwMXi8QC3e7YPG-2" vertex="1">
          <mxGeometry x="85" y="330" width="320" height="230" as="geometry" />
        </mxCell>
        <mxCell id="33KwMXjwMXi8QC3e7YPG-13" value="&lt;div&gt;Drone&lt;/div&gt;&lt;div&gt;Manager&lt;/div&gt;" style="rounded=1;whiteSpace=wrap;html=1;fontSize=16;" parent="33KwMXjwMXi8QC3e7YPG-7" vertex="1">
          <mxGeometry x="20" y="43" width="120" height="60" as="geometry" />
        </mxCell>
        <mxCell id="33KwMXjwMXi8QC3e7YPG-14" value="&lt;div&gt;Status&lt;/div&gt;&lt;div&gt;Updater&lt;/div&gt;" style="rounded=1;whiteSpace=wrap;html=1;fontSize=16;" parent="33KwMXjwMXi8QC3e7YPG-7" vertex="1">
          <mxGeometry x="180" y="43" width="120" height="60" as="geometry" />
        </mxCell>
        <mxCell id="33KwMXjwMXi8QC3e7YPG-15" value="&lt;div&gt;Sensor&lt;/div&gt;&lt;div&gt;Manager&lt;/div&gt;" style="rounded=1;whiteSpace=wrap;html=1;fontSize=16;" parent="33KwMXjwMXi8QC3e7YPG-7" vertex="1">
          <mxGeometry x="20" y="127" width="120" height="60" as="geometry" />
        </mxCell>
        <mxCell id="33KwMXjwMXi8QC3e7YPG-16" value="&lt;div&gt;Task&lt;/div&gt;&lt;div&gt;Scheduler&lt;/div&gt;" style="rounded=1;whiteSpace=wrap;html=1;fontSize=16;" parent="33KwMXjwMXi8QC3e7YPG-7" vertex="1">
          <mxGeometry x="180" y="127" width="120" height="60" as="geometry" />
        </mxCell>
        <mxCell id="33KwMXjwMXi8QC3e7YPG-12" value="Mission API" style="rounded=1;whiteSpace=wrap;html=1;fontSize=16;" parent="33KwMXjwMXi8QC3e7YPG-7" vertex="1">
          <mxGeometry x="95" y="200" width="120" height="60" as="geometry" />
        </mxCell>
        <mxCell id="33KwMXjwMXi8QC3e7YPG-25" style="edgeStyle=orthogonalEdgeStyle;rounded=0;orthogonalLoop=1;jettySize=auto;html=1;exitX=0;exitY=0.5;exitDx=0;exitDy=0;entryX=1;entryY=0.5;entryDx=0;entryDy=0;startArrow=classic;startFill=1;" parent="33KwMXjwMXi8QC3e7YPG-2" source="33KwMXjwMXi8QC3e7YPG-17" target="33KwMXjwMXi8QC3e7YPG-7" edge="1">
          <mxGeometry relative="1" as="geometry" />
        </mxCell>
        <mxCell id="33KwMXjwMXi8QC3e7YPG-17" value="Fleet Manager Core" style="swimlane;whiteSpace=wrap;html=1;fontSize=18;" parent="33KwMXjwMXi8QC3e7YPG-2" vertex="1">
          <mxGeometry x="725" y="330" width="320" height="230" as="geometry" />
        </mxCell>
        <mxCell id="33KwMXjwMXi8QC3e7YPG-10" value="&lt;div&gt;Service&lt;/div&gt;&lt;div&gt;Management&lt;/div&gt;&lt;div&gt;Plugin&lt;/div&gt;" style="rounded=1;whiteSpace=wrap;html=1;fontSize=16;" parent="33KwMXjwMXi8QC3e7YPG-17" vertex="1">
          <mxGeometry x="90" y="85" width="120" height="60" as="geometry" />
        </mxCell>
        <mxCell id="33KwMXjwMXi8QC3e7YPG-23" value="Mission API" style="rounded=1;whiteSpace=wrap;html=1;fontSize=16;" parent="33KwMXjwMXi8QC3e7YPG-17" vertex="1">
          <mxGeometry x="90" y="200" width="120" height="60" as="geometry" />
        </mxCell>
        <mxCell id="33KwMXjwMXi8QC3e7YPG-3" value="UAV Simulated" style="swimlane;whiteSpace=wrap;html=1;fontSize=18;" parent="1" vertex="1">
          <mxGeometry x="-320" y="-241" width="1130" height="370" as="geometry" />
        </mxCell>
        <mxCell id="33KwMXjwMXi8QC3e7YPG-27" value="Drone Core" style="swimlane;whiteSpace=wrap;html=1;fontSize=18;" parent="33KwMXjwMXi8QC3e7YPG-3" vertex="1">
          <mxGeometry x="80" y="55" width="250" height="280" as="geometry" />
        </mxCell>
        <mxCell id="33KwMXjwMXi8QC3e7YPG-29" value="Command Handler" style="rounded=1;whiteSpace=wrap;html=1;fontSize=16;" parent="33KwMXjwMXi8QC3e7YPG-27" vertex="1">
          <mxGeometry x="65" y="50" width="120" height="60" as="geometry" />
        </mxCell>
        <mxCell id="33KwMXjwMXi8QC3e7YPG-30" value="Status Tracker" style="rounded=1;whiteSpace=wrap;html=1;fontSize=16;" parent="33KwMXjwMXi8QC3e7YPG-27" vertex="1">
          <mxGeometry x="65" y="120" width="120" height="60" as="geometry" />
        </mxCell>
        <mxCell id="33KwMXjwMXi8QC3e7YPG-31" value="Telemetry Filter" style="rounded=1;whiteSpace=wrap;html=1;fontSize=16;" parent="33KwMXjwMXi8QC3e7YPG-27" vertex="1">
          <mxGeometry x="65" y="200" width="120" height="60" as="geometry" />
        </mxCell>
        <mxCell id="33KwMXjwMXi8QC3e7YPG-28" value="Drone Modules" style="swimlane;whiteSpace=wrap;html=1;fontSize=18;" parent="33KwMXjwMXi8QC3e7YPG-3" vertex="1">
          <mxGeometry x="580" y="55" width="475" height="280" as="geometry" />
        </mxCell>
        <mxCell id="33KwMXjwMXi8QC3e7YPG-32" value="Communications" style="swimlane;whiteSpace=wrap;html=1;" parent="33KwMXjwMXi8QC3e7YPG-28" vertex="1">
          <mxGeometry x="26.5" y="65" width="207.5" height="185" as="geometry" />
        </mxCell>
        <mxCell id="33KwMXjwMXi8QC3e7YPG-33" value="WiFi" style="rounded=1;whiteSpace=wrap;html=1;fontSize=16;" parent="33KwMXjwMXi8QC3e7YPG-32" vertex="1">
          <mxGeometry x="21.25" y="65" width="165" height="65" as="geometry" />
        </mxCell>
        <mxCell id="33KwMXjwMXi8QC3e7YPG-36" value="Data Vision" style="swimlane;whiteSpace=wrap;html=1;" parent="33KwMXjwMXi8QC3e7YPG-28" vertex="1">
          <mxGeometry x="244" y="65" width="207.5" height="185" as="geometry" />
        </mxCell>
        <mxCell id="33KwMXjwMXi8QC3e7YPG-37" value="YOLOv8" style="rounded=1;whiteSpace=wrap;html=1;fontSize=16;" parent="33KwMXjwMXi8QC3e7YPG-36" vertex="1">
          <mxGeometry x="21.25" y="65" width="165" height="65" as="geometry" />
        </mxCell>
        <mxCell id="NLpqun0uHGfVO9it0uOe-1" value="Camera" style="rounded=1;whiteSpace=wrap;html=1;fontSize=16;" vertex="1" parent="33KwMXjwMXi8QC3e7YPG-3">
          <mxGeometry x="378" y="150" width="165" height="65" as="geometry" />
        </mxCell>
        <mxCell id="NLpqun0uHGfVO9it0uOe-2" style="edgeStyle=orthogonalEdgeStyle;rounded=0;orthogonalLoop=1;jettySize=auto;html=1;exitX=0.5;exitY=1;exitDx=0;exitDy=0;entryX=0.5;entryY=1;entryDx=0;entryDy=0;startArrow=classic;startFill=1;" edge="1" parent="33KwMXjwMXi8QC3e7YPG-3" source="33KwMXjwMXi8QC3e7YPG-37" target="NLpqun0uHGfVO9it0uOe-1">
          <mxGeometry relative="1" as="geometry">
            <Array as="points">
              <mxPoint x="928" y="351" />
              <mxPoint x="461" y="351" />
            </Array>
          </mxGeometry>
        </mxCell>
        <mxCell id="33KwMXjwMXi8QC3e7YPG-41" value="&lt;font style=&quot;font-size: 20px;&quot;&gt;ITS-G5&lt;/font&gt;" style="text;html=1;align=center;verticalAlign=middle;resizable=0;points=[];autosize=1;strokeColor=none;fillColor=none;" parent="1" vertex="1">
          <mxGeometry x="75" y="180" width="90" height="40" as="geometry" />
        </mxCell>
        <mxCell id="33KwMXjwMXi8QC3e7YPG-42" style="edgeStyle=orthogonalEdgeStyle;rounded=0;orthogonalLoop=1;jettySize=auto;html=1;exitX=0.5;exitY=1;exitDx=0;exitDy=0;entryX=0;entryY=0.5;entryDx=0;entryDy=0;" parent="1" source="33KwMXjwMXi8QC3e7YPG-28" target="33KwMXjwMXi8QC3e7YPG-39" edge="1">
          <mxGeometry relative="1" as="geometry">
            <Array as="points">
              <mxPoint x="498" y="270" />
              <mxPoint x="890" y="270" />
              <mxPoint x="890" y="500" />
            </Array>
          </mxGeometry>
        </mxCell>
        <mxCell id="33KwMXjwMXi8QC3e7YPG-43" value="&lt;font style=&quot;font-size: 20px;&quot;&gt;WiFi&lt;/font&gt;" style="text;html=1;align=center;verticalAlign=middle;resizable=0;points=[];autosize=1;strokeColor=none;fillColor=none;" parent="1" vertex="1">
          <mxGeometry x="665" y="224" width="60" height="40" as="geometry" />
        </mxCell>
      </root>
    </mxGraphModel>
  </diagram>
</mxfile>
